<svg width="16" height="15" viewBox="0 0 16 15" fill="none" xmlns="http://www.w3.org/2000/svg">
<path d="M14.6915 5.36957H11.3437V2.02174C11.3437 1.94102 11.3116 1.86361 11.2545 1.80653C11.1975 1.74946 11.12 1.71739 11.0393 1.71739H1.60455V0.804348C1.60455 0.72363 1.57248 0.646218 1.5154 0.589141C1.45833 0.532065 1.38092 0.5 1.3002 0.5C1.21948 0.5 1.14207 0.532065 1.08499 0.589141C1.02791 0.646218 0.99585 0.72363 0.99585 0.804348V14.1957C0.99585 14.2764 1.02791 14.3538 1.08499 14.4109C1.14207 14.4679 1.21948 14.5 1.3002 14.5C1.38092 14.5 1.45833 14.4679 1.5154 14.4109C1.57248 14.3538 1.60455 14.2764 1.60455 14.1957V13.2826H8.60455C8.68526 13.2826 8.76268 13.2505 8.81975 13.1935C8.87683 13.1364 8.90889 13.059 8.90889 12.9783V9.63043H14.6915C14.7722 9.63043 14.8496 9.59837 14.9067 9.54129C14.9638 9.48422 14.9958 9.40681 14.9958 9.32609V5.67391C14.9958 5.59319 14.9638 5.51578 14.9067 5.45871C14.8496 5.40163 14.7722 5.36957 14.6915 5.36957ZM10.735 2.32609V5.36957H1.60455V2.32609H10.735ZM8.3002 12.6739H1.60455V9.63043H8.3002V12.6739ZM14.3872 9.02174H1.60455V5.97826H14.3872V9.02174Z" fill="#333333" stroke="#333333" stroke-width="0.3"/>
</svg>
