<svg width="15" height="15" viewBox="0 0 15 15" fill="none" xmlns="http://www.w3.org/2000/svg">
<path d="M6.59697 9.75493C9.22498 9.75493 11.3552 7.84012 11.3552 5.47732C11.3552 3.11452 9.22498 1.19971 6.59697 1.19971C3.96974 1.19971 1.83948 3.11452 1.83948 5.47732C1.83948 6.11352 1.99348 6.71705 2.27036 7.25992L1.24451 9.75493L4.21862 9.18251C4.95368 9.5622 5.76964 9.75858 6.59697 9.75493Z" stroke="#333333" stroke-linejoin="round"/>
<path d="M5.16123 10.1496C5.57983 10.8546 6.17518 11.4065 6.88706 11.7494C7.53545 12.0698 8.26266 12.206 9.00671 12.1463L11.0912 13.7999L11.3786 11.1641C11.8433 10.7774 12.2275 10.2847 12.4991 9.72724C12.9235 8.85694 13.0339 7.91739 12.8748 7.04197C12.7207 6.19666 12.3151 5.41125 11.6968 4.80597" stroke="#333333" stroke-linecap="round" stroke-linejoin="round"/>
<path d="M8.74394 5.47746C8.74394 5.63085 8.86829 5.7552 9.02169 5.7552C9.17509 5.7552 9.29944 5.63085 9.29944 5.47746C9.29944 5.32406 9.17509 5.19971 9.02169 5.19971C8.86829 5.19971 8.74394 5.32406 8.74394 5.47746Z" fill="#333333" stroke="#333333"/>
<path d="M6.41069 5.47746C6.41069 5.63085 6.53504 5.7552 6.68844 5.7552C6.84183 5.7552 6.96619 5.63085 6.96619 5.47746C6.96619 5.32406 6.84183 5.19971 6.68844 5.19971C6.53504 5.19971 6.41069 5.32406 6.41069 5.47746Z" fill="#333333" stroke="#333333"/>
<path d="M4.07732 5.47746C4.07732 5.63085 4.20167 5.7552 4.35506 5.7552C4.50846 5.7552 4.63281 5.63085 4.63281 5.47746C4.63281 5.32406 4.50846 5.19971 4.35506 5.19971C4.20167 5.19971 4.07732 5.32406 4.07732 5.47746Z" fill="#333333" stroke="#333333"/>
</svg>
