<svg width="15" height="15" viewBox="0 0 15 15" fill="none" xmlns="http://www.w3.org/2000/svg">
<path d="M14.3634 1.29733C14.451 1.20983 14.5003 1.09109 14.5004 0.967258C14.5005 0.843421 14.4514 0.724621 14.3639 0.636994C14.2764 0.549366 14.1577 0.500088 14.0338 0.5C13.91 0.499913 13.7912 0.549023 13.7035 0.636527L6.23686 8.10322L6.09965 8.90029L6.89672 8.76402L14.3634 1.29733ZM2.83298 1.4336C2.21414 1.4336 1.62064 1.67943 1.18305 2.11702C0.745467 2.5546 0.499634 3.1481 0.499634 3.76694V12.167C0.499634 12.7858 0.745467 13.3793 1.18305 13.8169C1.62064 14.2545 2.21414 14.5003 2.83298 14.5003H11.233C11.8518 14.5003 12.4453 14.2545 12.8829 13.8169C13.3205 13.3793 13.5663 12.7858 13.5663 12.167V6.56695C13.5663 6.44318 13.5172 6.32448 13.4297 6.23696C13.3421 6.14945 13.2234 6.10028 13.0997 6.10028C12.9759 6.10028 12.8572 6.14945 12.7697 6.23696C12.6822 6.32448 12.633 6.44318 12.633 6.56695V12.167C12.633 12.5383 12.4855 12.8944 12.223 13.1569C11.9604 13.4195 11.6043 13.567 11.233 13.567H2.83298C2.46167 13.567 2.10557 13.4195 1.84302 13.1569C1.58047 12.8944 1.43297 12.5383 1.43297 12.167V3.76694C1.43297 3.39563 1.58047 3.03954 1.84302 2.77699C2.10557 2.51443 2.46167 2.36693 2.83298 2.36693H8.43766C8.56143 2.36693 8.68013 2.31777 8.76765 2.23025C8.85516 2.14273 8.90433 2.02403 8.90433 1.90026C8.90433 1.7765 8.85516 1.6578 8.76765 1.57028C8.68013 1.48276 8.56143 1.4336 8.43766 1.4336H2.83298Z" fill="#333333"/>
</svg>
