<svg width="12" height="12" viewBox="0 0 12 12" fill="none" xmlns="http://www.w3.org/2000/svg">
<path d="M1.67457 12.0001C1.44387 11.9936 1.21682 11.9408 1.00691 11.8449C0.797005 11.7489 0.60852 11.6118 0.452651 11.4416C0.296782 11.2714 0.176709 11.0716 0.099563 10.854C0.0224168 10.6365 -0.0102289 10.4057 0.00356481 10.1753C-0.00445602 8.73627 0.00356481 7.2972 0.00356481 5.85813C0.00356481 5.76949 0.0387751 5.68449 0.10145 5.62181C0.164125 5.55914 0.24913 5.52393 0.337766 5.52393C0.426402 5.52393 0.511407 5.55914 0.574082 5.62181C0.636757 5.68449 0.671967 5.76949 0.671967 5.85813C0.671967 7.32861 0.650578 8.7991 0.671967 10.2696C0.682661 11.0095 1.23877 11.3317 1.90049 11.3317H10.2308C10.4411 11.3365 10.6478 11.2771 10.8236 11.1615C10.9993 11.046 11.1357 10.8796 11.2147 10.6847C11.2791 10.4542 11.3017 10.214 11.2815 9.97548V5.85813C11.2815 5.76949 11.3167 5.68449 11.3794 5.62181C11.4421 5.55914 11.5271 5.52393 11.6157 5.52393C11.7044 5.52393 11.7894 5.55914 11.852 5.62181C11.9147 5.68449 11.9499 5.76949 11.9499 5.85813C11.9499 7.34465 12.0067 8.84254 11.9499 10.3277C11.9442 10.5552 11.8932 10.7792 11.8001 10.9868C11.707 11.1943 11.5735 11.3813 11.4074 11.5368C11.2413 11.6923 11.046 11.8132 10.8327 11.8925C10.6195 11.9718 10.3926 12.0079 10.1653 11.9987L1.67457 12.0001Z" fill="#333333"/>
<path d="M5.7371 8.55755C5.79222 8.61389 5.86687 8.64691 5.94564 8.64979C5.955 8.64979 5.96369 8.65314 5.97371 8.6538C5.98374 8.65447 5.99176 8.6538 6.00112 8.64979C6.07989 8.64691 6.15454 8.61389 6.20966 8.55755L8.66203 6.10519C8.72291 6.04215 8.75659 5.95774 8.75583 5.87011C8.75507 5.78248 8.71992 5.69866 8.65796 5.6367C8.59599 5.57473 8.51217 5.53959 8.42455 5.53882C8.33692 5.53806 8.2525 5.57175 8.18947 5.63263L6.30792 7.51418V0.334201C6.30792 0.245565 6.27271 0.16056 6.21003 0.0978851C6.14736 0.0352103 6.06235 0 5.97371 0C5.88508 0 5.80007 0.0352103 5.7374 0.0978851C5.67472 0.16056 5.63951 0.245565 5.63951 0.334201V7.51418L3.75729 5.63263C3.69426 5.57175 3.60984 5.53806 3.52222 5.53882C3.43459 5.53959 3.35077 5.57473 3.2888 5.6367C3.22684 5.69866 3.19169 5.78248 3.19093 5.87011C3.19017 5.95774 3.22385 6.04215 3.28473 6.10519L5.7371 8.55755Z" fill="#333333"/>
</svg>
