<svg width="16" height="15" viewBox="0 0 16 15" fill="none" xmlns="http://www.w3.org/2000/svg">
<path d="M15.2488 13.8839L11.8709 10.8035M11.8709 10.8035C12.4487 10.2766 12.9071 9.65105 13.2198 8.9626C13.5325 8.27415 13.6934 7.53627 13.6934 6.7911C13.6934 6.04593 13.5325 5.30805 13.2198 4.6196C12.9071 3.93115 12.4487 3.30561 11.8709 2.77869C11.2931 2.25178 10.6072 1.8338 9.85227 1.54864C9.09734 1.26347 8.28822 1.1167 7.47109 1.1167C6.65396 1.1167 5.84484 1.26347 5.08991 1.54864C4.33499 1.8338 3.64905 2.25178 3.07125 2.77869C1.90434 3.84285 1.24878 5.28616 1.24878 6.7911C1.24878 8.29605 1.90434 9.73935 3.07125 10.8035C4.23816 11.8677 5.82083 12.4655 7.47109 12.4655C9.12135 12.4655 10.704 11.8677 11.8709 10.8035Z" stroke="#333333" stroke-linecap="round" stroke-linejoin="round"/>
</svg>
