<svg width="15" height="15" viewBox="0 0 15 15" fill="none" xmlns="http://www.w3.org/2000/svg">
<path d="M0.497559 3.41423C0.497559 2.03911 0.497559 1.35156 0.925336 0.925336C1.35078 0.497559 2.03834 0.497559 3.41423 0.497559C4.78934 0.497559 5.47689 0.497559 5.90311 0.925336C6.33089 1.35156 6.33089 2.03911 6.33089 3.41423C6.33089 4.78934 6.33089 5.47689 5.90311 5.90311C5.47689 6.33089 4.78934 6.33089 3.41423 6.33089C2.03911 6.33089 1.35156 6.33089 0.925336 5.90311C0.497559 5.47767 0.497559 4.79011 0.497559 3.41423ZM0.497559 11.5863C0.497559 10.2112 0.497559 9.52367 0.925336 9.09745C1.35156 8.66967 2.03911 8.66967 3.41423 8.66967C4.78934 8.66967 5.47689 8.66967 5.90311 9.09745C6.33089 9.52367 6.33089 10.2112 6.33089 11.5863C6.33089 12.9614 6.33089 13.649 5.90311 14.0752C5.47689 14.503 4.78934 14.503 3.41423 14.503C2.03911 14.503 1.35156 14.503 0.925336 14.0752C0.497559 13.6498 0.497559 12.9614 0.497559 11.5863ZM8.66423 3.41423C8.66423 2.03911 8.66423 1.35156 9.092 0.925336C9.51823 0.497559 10.2058 0.497559 11.5809 0.497559C12.956 0.497559 13.6436 0.497559 14.0698 0.925336C14.4976 1.35156 14.4976 2.03911 14.4976 3.41423C14.4976 4.78934 14.4976 5.47689 14.0698 5.90311C13.6436 6.33089 12.956 6.33089 11.5809 6.33089C10.2058 6.33089 9.51823 6.33089 9.092 5.90311C8.66423 5.47689 8.66423 4.78934 8.66423 3.41423ZM8.66423 11.5863C8.66423 10.2112 8.66423 9.52367 9.092 9.09745C9.51823 8.66967 10.2058 8.66967 11.5809 8.66967C12.956 8.66967 13.6436 8.66967 14.0698 9.09745C14.4976 9.52367 14.4976 10.2112 14.4976 11.5863C14.4976 12.9614 14.4976 13.649 14.0698 14.0752C13.6436 14.503 12.956 14.503 11.5809 14.503C10.2058 14.503 9.51823 14.503 9.092 14.0752C8.66423 13.649 8.66423 12.9614 8.66423 11.5863Z" stroke="#333333" stroke-linecap="round" stroke-linejoin="round"/>
</svg>
